<svg xmlns="http://www.w3.org/2000/svg" width="53" height="43" viewBox="0 0 53 43"><path fill="none" d="M0 0h53v43H0z"/><path d="M.9 26.5l-.3-1.2c.2 0 .3 0 .5.1h.5c.3 0 .5-.2.5-.5V22c-.2.1-.5.2-.7.3-.2.1-.5.2-.7.3l-.3-1.3c.6-.1 1.2-.3 1.8-.5v-2.9H.6v-1.2h1.5v-2.3h1.2v2.3h1.3v1.2H3.3v2.4c.2-.1.5-.2.7-.3.2-.1.4-.2.7-.4v1.2c-.2.1-.5.2-.7.4-.2.1-.4.2-.7.3v3.6c0 .9-.4 1.3-1.3 1.3H.9v.1zm7.2-10.3v-1.8h1.2v1.8h3.1v1.2H9.3v1.9h2.6v1.1c-.4 1.4-1.2 2.6-2.1 3.6.9.6 1.9 1.2 3 1.6l-.7 1.1-1.8-.9c-.5-.3-1-.6-1.5-1-.5.4-1 .7-1.6 1.1-.6.3-1.3.6-2 .9l-.6-1c1.4-.4 2.5-1 3.4-1.7-1-1-1.7-2.2-2.1-3.5h-.7v-1.2H8v-1.9H4.9v-1.2h3.2v-.1zm-1 4.2c.3 1 .9 1.9 1.8 2.8.8-.8 1.4-1.7 1.8-2.8H7.1zm12.1-3v-3.1h1.3v3.1h5.1v1.2h-3.9c.9 2.1 2.3 3.9 4.3 5.5l-1 1.1c-2.2-2-3.7-4.1-4.6-6.6v7.9h-1.3v-7.9c-1 2.7-2.6 4.9-4.8 6.6l-.7-1.1c2-1.5 3.5-3.3 4.4-5.5h-3.9v-1.2h5.1zm3.4-3.1c.8.8 1.4 1.5 1.8 2.1l-1 .7c-.2-.3-.5-.7-.8-1-.3-.4-.6-.7-1-1.2l1-.6zm11.2 0V16h5.1v1.2h-5.1V19h3.5v1c-.7 1.4-1.7 2.7-3.1 3.7.3.2.6.3.9.5.3.2.7.3 1 .4.9.4 1.9.6 3 .9l-.7 1.1c-.6-.2-1.1-.3-1.7-.5-.6-.2-1.1-.4-1.6-.6-.4-.2-.7-.3-1-.5s-.7-.3-1-.5c-1.5.9-3.3 1.6-5.3 2.2l-.7-1.1c1-.2 1.9-.5 2.7-.8.8-.3 1.6-.6 2.3-1-.3-.3-.6-.5-.9-.8s-.6-.6-.8-.9c-.5-.6-.8-1.2-1-1.9h-.9V19h4.1v-1.8h-5.1V16h5.1v-1.6h1.2v-.1zm-.7 8.8c.6-.4 1.1-.9 1.6-1.4s.9-1 1.2-1.6h-5.3c.1.3.3.6.4.9s.4.5.6.8l.7.7c.2.2.6.4.8.6zm7.7 3.4l-.3-1.2c.2 0 .4 0 .5.1s.3 0 .5 0c.3 0 .5-.2.5-.5v-2.8c-.2.1-.5.2-.7.2-.2.1-.5.1-.7.2l-.3-1.3c.3-.1.6-.1.9-.2l.9-.3V18h-1.5v-1.2H42v-2.3h1.2v2.3h1.3V18h-1.3v2.3c.2-.1.4-.2.7-.3l.6-.3V21l-.6.3-.6.3v3.6c0 .9-.4 1.3-1.3 1.3h-1.2zm8.7-5.8v-.9h1.2v.9h1.6v1.2h-1.6v3.3c0 .9-.4 1.3-1.3 1.3h-1.8l-.3-1.2h1.6c.3 0 .5-.2.5-.5v-3h-4.7v-1.2h4.8v.1zm-.3-6.3v1.2h2.6v1.2h-2.6v1.3h3.1v1.2H45v-1.2h3v-1.3h-2.5v-1.2H48v-1.2h1.2zm-2.8 7.9c.6.8 1.1 1.5 1.4 2.1l-1 .7c-.2-.3-.4-.6-.6-1-.2-.4-.5-.7-.8-1.1l1-.7z" fill="#fff"/></svg>