<?xml version="1.0" encoding="utf-8"?>
<!-- Generator: Adobe Illustrator 20.0.0, SVG Export Plug-In . SVG Version: 6.00 Build 0)  -->
<svg version="1.1" xmlns="http://www.w3.org/2000/svg" xmlns:xlink="http://www.w3.org/1999/xlink" x="0px" y="0px" width="46px"
	 height="44px" viewBox="0 0 46 44" style="enable-background:new 0 0 46 44;" xml:space="preserve">
<style type="text/css">
	.st0{fill:none;}
	.st1{fill:#FFFFFF;}
</style>
<g id="Rererence_UI_Elements">
</g>
<g id="Desktop">
	<g id="Bag_Drop_Down_1_">
	</g>
	<g id="Top_Nav">
	</g>
	<g id="Search_Results_Drop_Down">
	</g>
</g>
<g id="Mobile">
	<g id="Top_Nav_1_">
	</g>
	<g id="Search_1_">
	</g>
	<g>
		<g>
			<rect class="st0" width="46" height="44"/>
		</g>
		<g>
			<path class="st1" d="M0.864,26.99l-0.232-1.019c0.155,0.018,0.299,0.032,0.432,0.045c0.133,0.013,0.265,0.02,0.394,0.02
				c0.284,0,0.425-0.155,0.425-0.464v-2.425c-0.206,0.078-0.415,0.155-0.625,0.232c-0.21,0.077-0.419,0.155-0.625,0.232
				l-0.284-1.083c0.499-0.12,1.01-0.271,1.535-0.451v-2.463h-1.29v-1.032h1.29v-2.012h1.045v2.012h1.109v1.032H2.928v2.025
				c0.198-0.095,0.389-0.185,0.574-0.271c0.185-0.086,0.376-0.189,0.574-0.31v1.071c-0.198,0.112-0.389,0.212-0.574,0.303
				c-0.185,0.09-0.376,0.183-0.574,0.277v3.134c0,0.765-0.37,1.148-1.109,1.148H0.864z M7.042,18.129v-1.535H8.1v1.535h2.67v1.045
				H8.1v1.625h2.244v0.955c-0.378,1.204-0.993,2.231-1.844,3.083c0.731,0.533,1.595,0.998,2.592,1.393l-0.567,0.903
				c-0.55-0.25-1.056-0.507-1.516-0.774c-0.46-0.266-0.883-0.55-1.27-0.851c-0.43,0.335-0.903,0.639-1.419,0.909
				c-0.516,0.271-1.088,0.518-1.715,0.742l-0.516-0.89c1.161-0.378,2.128-0.86,2.902-1.445c-0.895-0.894-1.496-1.896-1.806-3.005
				H4.604v-1.019h2.438v-1.625h-2.67v-1.045H7.042z M6.217,21.818c0.266,0.877,0.77,1.672,1.509,2.386
				c0.679-0.688,1.2-1.483,1.561-2.386H6.217z"/>
			<path class="st1" d="M16.612,19.187v-2.644h1.083v2.644h4.359v1.045h-3.366c0.739,1.771,1.973,3.357,3.702,4.759l-0.735,0.916
				c-1.883-1.677-3.203-3.555-3.959-5.636v6.81h-1.083v-6.784c-0.843,2.304-2.223,4.191-4.14,5.662l-0.606-0.98
				c1.719-1.247,2.971-2.829,3.753-4.746h-3.328v-1.045H16.612z M19.553,16.556c0.662,0.688,1.169,1.281,1.522,1.78l-0.877,0.606
				c-0.189-0.284-0.406-0.58-0.651-0.89c-0.245-0.31-0.522-0.641-0.832-0.993L19.553,16.556z"/>
			<path class="st1" d="M29.162,16.569v1.406h4.372v1.045h-4.372v1.509h3.031v0.941c-0.61,1.238-1.488,2.296-2.631,3.173
				c0.258,0.129,0.524,0.263,0.799,0.4c0.275,0.138,0.572,0.258,0.89,0.361c0.782,0.301,1.642,0.555,2.58,0.761l-0.619,0.967
				c-0.499-0.129-0.985-0.273-1.458-0.432c-0.473-0.159-0.933-0.337-1.38-0.535c-0.31-0.129-0.611-0.264-0.903-0.406
				c-0.292-0.142-0.572-0.298-0.838-0.471c-1.281,0.783-2.812,1.41-4.592,1.883l-0.619-0.955c0.834-0.198,1.608-0.428,2.322-0.69
				c0.713-0.262,1.363-0.557,1.948-0.884c-0.284-0.232-0.551-0.471-0.8-0.716c-0.25-0.245-0.477-0.505-0.684-0.78
				c-0.421-0.516-0.709-1.049-0.864-1.599h-0.812v-1.019h3.495V19.02h-4.372v-1.045h4.372v-1.406H29.162z M28.607,24.075
				c0.499-0.361,0.946-0.75,1.341-1.167s0.731-0.871,1.006-1.361h-4.54c0.103,0.258,0.228,0.505,0.374,0.742
				c0.146,0.236,0.318,0.458,0.516,0.664s0.404,0.402,0.619,0.587S28.366,23.903,28.607,24.075z"/>
			<path class="st1" d="M35.21,27.016l-0.245-1.045c0.155,0.018,0.303,0.032,0.445,0.045c0.142,0.013,0.277,0.02,0.406,0.02
				c0.292,0,0.438-0.146,0.438-0.438v-2.386c-0.198,0.069-0.398,0.134-0.6,0.194c-0.202,0.06-0.406,0.129-0.613,0.206l-0.284-1.109
				c0.258-0.052,0.512-0.112,0.761-0.181c0.249-0.069,0.494-0.146,0.735-0.232v-2.386h-1.303v-1.045h1.303v-1.947h1.058v1.947h1.096
				v1.045h-1.096v1.986c0.198-0.077,0.385-0.163,0.561-0.258c0.176-0.094,0.359-0.189,0.548-0.284v1.122
				c-0.189,0.095-0.374,0.183-0.555,0.265c-0.181,0.082-0.366,0.161-0.555,0.238v3.083c0,0.774-0.366,1.161-1.096,1.161H35.21z
				 M42.717,22.012v-0.774h1.07v0.774h1.354v1.019h-1.354v2.863c0,0.756-0.37,1.135-1.109,1.135h-1.535l-0.219-1.045
				c0.241,0.018,0.473,0.03,0.697,0.039c0.223,0.008,0.442,0.013,0.658,0.013c0.292,0,0.438-0.142,0.438-0.426v-2.579h-4.076v-1.019
				H42.717z M42.446,16.621v1.07h2.257v0.993h-2.257v1.083h2.683v1.032h-6.32v-1.032h2.58v-1.083h-2.154v-0.993h2.154v-1.07H42.446z
				 M40.034,23.392c0.542,0.688,0.954,1.281,1.238,1.78l-0.864,0.593c-0.155-0.266-0.338-0.554-0.548-0.864
				c-0.211-0.31-0.445-0.632-0.703-0.967L40.034,23.392z"/>
		</g>
	</g>
	<g>
	</g>
	<g>
	</g>
	<g>
	</g>
	<g>
	</g>
	<g>
	</g>
	<g>
	</g>
</g>
</svg>
