<?xml version="1.0" encoding="utf-8"?>
<!-- Generator: Adobe Illustrator 18.0.0, SVG Export Plug-In . SVG Version: 6.00 Build 0)  -->
<!DOCTYPE svg PUBLIC "-//W3C//DTD SVG 1.1//EN" "http://www.w3.org/Graphics/SVG/1.1/DTD/svg11.dtd">
<svg version="1.1" id="Global_Nav_Large" xmlns="http://www.w3.org/2000/svg" xmlns:xlink="http://www.w3.org/1999/xlink" x="0px"
	 y="0px" viewBox="0 0 57 44" enable-background="new 0 0 57 44" xml:space="preserve">
<rect x="-2.6" y="12.1" display="none" width="62.2" height="20.8"/>
<path id="Support" display="none" fill="#FFFFFF" d="M7.5,22.2c-0.4-0.5-1.1-0.9-2-1.3c-0.8-0.3-1.3-0.6-1.6-0.9
	c-0.3-0.3-0.5-0.7-0.5-1.3c0-0.4,0.2-0.8,0.5-1.1c0.4-0.4,0.9-0.6,1.6-0.6c0.8,0,1.4,0.2,1.9,0.5l0.4-1c-0.6-0.3-1.3-0.5-2.3-0.5
	c-1,0-1.8,0.3-2.4,0.8c-0.6,0.5-0.9,1.2-0.9,2c0,1.3,0.9,2.3,2.8,3c0.7,0.3,1.2,0.6,1.6,0.9C6.8,23.3,7,23.7,7,24.2
	c0,0.6-0.2,1-0.6,1.4c-0.4,0.3-1,0.5-1.7,0.5c-0.9,0-1.7-0.2-2.4-0.7l-0.3,1c0.7,0.5,1.5,0.7,2.6,0.7c1.2,0,2.1-0.3,2.7-0.9
	c0.6-0.6,0.9-1.3,0.9-2.1C8.2,23.4,8,22.7,7.5,22.2L7.5,22.2z M16.3,25v-5.6h-1.2v4.8c0,0.3,0,0.5-0.1,0.7c-0.1,0.4-0.4,0.7-0.7,0.9
	c-0.4,0.3-0.8,0.4-1.2,0.4c-1.2,0-1.7-0.8-1.7-2.5v-4.3h-1.2v4.5c0,1.2,0.3,2.1,0.9,2.7c0.4,0.4,1,0.7,1.7,0.7c1.1,0,2-0.5,2.5-1.4
	h0l0.1,1.3h1.1C16.3,26.3,16.3,25.6,16.3,25L16.3,25z M25,20.3c-0.6-0.7-1.4-1.1-2.3-1.1c-1.2,0-2.1,0.5-2.7,1.5l-0.1-1.3h-1.1
	c0,0.8,0.1,1.6,0.1,2.5v8.3h1.2v-4.2c0.5,0.8,1.3,1.2,2.4,1.2c1,0,1.8-0.3,2.4-1c0.7-0.8,1.1-1.8,1.1-3.1l0,0l0,0
	C25.9,21.9,25.6,21,25,20.3z M24,25.3c-0.4,0.6-1,0.9-1.8,0.9c-0.6,0-1.2-0.2-1.6-0.7c-0.4-0.4-0.6-1-0.6-1.6v-1.4
	c0-0.1,0-0.3,0.1-0.6c0.1-0.5,0.4-1,0.8-1.3c0.4-0.3,0.9-0.5,1.3-0.5c0.7,0,1.3,0.3,1.7,0.9c0.4,0.6,0.6,1.2,0.6,2.1
	C24.7,24,24.5,24.8,24,25.3L24,25.3z M34,20.3c-0.6-0.7-1.4-1.1-2.3-1.1c-1.2,0-2.1,0.5-2.7,1.5L29,19.3h-1.1c0,0.8,0.1,1.6,0.1,2.5
	v8.3h1.2v-4.2c0.5,0.8,1.3,1.2,2.4,1.2c1,0,1.8-0.3,2.4-1c0.7-0.8,1.1-1.8,1.1-3.1l0,0l0,0C34.9,21.9,34.6,21,34,20.3z M33.1,25.3
	c-0.4,0.6-1,0.9-1.8,0.9c-0.6,0-1.2-0.2-1.6-0.7c-0.4-0.4-0.6-1-0.6-1.6v-1.4c0-0.1,0-0.3,0.1-0.6c0.1-0.5,0.4-1,0.8-1.3
	s0.9-0.5,1.3-0.5c0.7,0,1.3,0.3,1.7,0.9c0.4,0.6,0.6,1.2,0.6,2.1C33.7,24,33.5,24.8,33.1,25.3L33.1,25.3z M42.9,20.3
	c-0.7-0.8-1.5-1.1-2.6-1.1c-1.1,0-2,0.4-2.7,1.2c-0.6,0.8-1,1.7-1,2.9c0,1.1,0.3,2,0.9,2.8c0.7,0.8,1.5,1.2,2.6,1.2
	c1.1,0,2.1-0.4,2.7-1.2c0.6-0.8,1-1.7,1-2.9C43.8,22,43.5,21,42.9,20.3L42.9,20.3z M41.9,25.2c-0.5,0.7-1.1,1-1.8,1
	c-0.8,0-1.4-0.3-1.8-1c-0.4-0.6-0.6-1.3-0.6-2c0-0.8,0.2-1.5,0.6-2.1c0.4-0.7,1.1-1,1.9-1c0.8,0,1.4,0.3,1.8,1
	c0.4,0.6,0.6,1.3,0.6,2.1C42.5,23.9,42.3,24.6,41.9,25.2L41.9,25.2z M49.4,19.2c-0.1,0-0.2,0-0.4,0c-0.5,0-0.9,0.2-1.3,0.5
	c-0.4,0.3-0.7,0.7-0.8,1.2h0l0-1.5h-1c0,0.8,0,1.6,0,2.3V27H47v-4.1c0-0.7,0.1-1.2,0.4-1.7c0.4-0.6,0.9-0.8,1.5-0.8
	c0.2,0,0.3,0,0.4,0L49.4,19.2L49.4,19.2z M55.1,19.3h-2v-1.8l-1.2,0.4v1.4h-1.2v0.9h1.2v4.4c0,0.9,0.2,1.5,0.5,1.9s0.8,0.6,1.4,0.6
	c0.5,0,0.9-0.1,1.2-0.2l-0.1-0.9c-0.2,0.1-0.5,0.1-0.8,0.1c-0.7,0-1-0.5-1-1.5v-4.4h2L55.1,19.3z"/>
<text id="cn" transform="matrix(1 0 0 1 -0.1876 26.3334)" display="none" fill="#FFFFFF" font-family="'PingHei-Light'" font-size="15.5" letter-spacing="1">技术支持</text>
<g id="cn_xFF0D_old" display="none">
	<path display="inline" fill="#FFFFFF" d="M4.3,22.1c-0.2,0.1-0.4,0.2-0.7,0.2c-0.2,0.1-0.5,0.2-0.7,0.3v3.6c0,0.4-0.1,0.7-0.3,0.9
		s-0.5,0.3-0.9,0.3c-0.1,0-0.3,0-0.5,0c-0.2,0-0.4,0-0.6,0l-0.2-1c0.2,0,0.4,0,0.5,0c0.2,0,0.3,0,0.4,0c0.2,0,0.3,0,0.4-0.1
		c0.1-0.1,0.1-0.2,0.1-0.4v-2.9c-0.3,0.1-0.5,0.2-0.8,0.3s-0.5,0.2-0.7,0.2l-0.3-1c0.2-0.1,0.5-0.1,0.8-0.2c0.3-0.1,0.6-0.2,0.9-0.3
		v-2.7H0.3v-0.9h1.5v-2.5h1v2.5h1.3v0.9H2.8v2.4c0.2-0.1,0.5-0.2,0.7-0.2c0.2-0.1,0.4-0.2,0.6-0.2L4.3,22.1z M11.3,27.5
		c-0.6-0.2-1.2-0.5-1.8-0.8c-0.5-0.3-1-0.7-1.5-1.1c-0.5,0.4-1,0.8-1.6,1.1c-0.6,0.3-1.2,0.6-2,0.9l-0.7-1c0.7-0.2,1.4-0.4,2-0.7
		c0.6-0.3,1.1-0.6,1.6-1c-0.9-0.9-1.5-2.1-2.1-3.6H4.6v-1h2.9v-1.7H4.6v-1h2.9v-1.9h1v1.9h3.2v1H8.5v1.7h2.7c-0.3,1-0.6,1.9-1,2.6
		c-0.4,0.7-0.9,1.4-1.4,2c0.5,0.4,0.9,0.7,1.5,1c0.5,0.3,1.1,0.5,1.7,0.7L11.3,27.5z M6.2,21.2c0.2,0.5,0.5,1.1,0.8,1.6
		s0.7,1,1.1,1.4c0.8-0.9,1.4-1.8,1.8-2.9H6.2z"/>
	<path display="inline" fill="#FFFFFF" d="M20.4,19.6c0.6,1.2,1.3,2.2,2.2,3.1s1.7,1.6,2.8,2.3L24.6,26c-0.6-0.4-1.1-0.8-1.5-1.2
		c-0.5-0.4-0.9-0.8-1.2-1.2c-0.4-0.4-0.7-0.9-1-1.3c-0.3-0.5-0.6-0.9-0.9-1.4v6.7h-1.1v-6.7c-0.5,1-1.1,1.9-1.9,2.8
		c-0.8,0.9-1.7,1.7-2.7,2.5l-0.7-0.9c1.2-0.8,2.1-1.6,2.9-2.5c0.8-0.9,1.4-1.9,2-3h-4.6v-1h5v-2.9h1.1v2.9H25v1H20.4z M23.1,18.5
		c-0.3-0.3-0.7-0.7-1-0.9c-0.3-0.3-0.7-0.6-1.1-0.9l0.7-0.7c0.4,0.3,0.7,0.6,1.1,0.9s0.7,0.6,1,0.9L23.1,18.5z"/>
	<path display="inline" fill="#FFFFFF" d="M38.2,27.5c-1.1-0.2-2.1-0.5-3-0.9s-1.6-0.7-2.3-1.2c-1.3,0.8-3.1,1.6-5.5,2.2l-0.5-1.1
		c2.1-0.4,3.8-1,5.1-1.8c-0.6-0.5-1.1-1-1.5-1.5c-0.4-0.5-0.9-1.2-1.3-1.9h-1.1v-1h4.2v-1.8h-5.3v-1h5.3v-1.8h1.1v1.8h5.3v1h-5.3
		v1.8h3.8c-0.2,0.5-0.4,0.9-0.7,1.3c-0.2,0.4-0.5,0.8-0.7,1.1c-0.3,0.4-0.6,0.7-0.9,1c-0.3,0.3-0.7,0.6-1.1,0.9
		c0.8,0.5,1.6,0.8,2.5,1.1c0.8,0.2,1.6,0.4,2.5,0.6L38.2,27.5z M30.4,21.3c0.3,0.6,0.7,1.1,1.1,1.6s0.9,0.9,1.4,1.2
		c1.2-0.8,2-1.8,2.6-2.8H30.4z"/>
	<path display="inline" fill="#FFFFFF" d="M44.6,22.2c-0.2,0.1-0.5,0.2-0.7,0.2c-0.2,0.1-0.5,0.2-0.8,0.3v3.5c0,0.4-0.1,0.7-0.3,0.9
		s-0.5,0.3-0.9,0.3h-1l-0.2-1c0.4,0,0.7,0,1,0c0.2,0,0.3,0,0.3-0.1c0.1-0.1,0.1-0.2,0.1-0.4v-2.8c-0.2,0.1-0.5,0.2-0.7,0.2
		c-0.2,0.1-0.5,0.2-0.7,0.2l-0.3-1c0.3-0.1,0.5-0.1,0.8-0.2c0.3-0.1,0.6-0.2,0.9-0.3v-2.8h-1.5v-0.9h1.5v-2.5h1v2.5h1.3v0.9h-1.3
		v2.5c0.2-0.1,0.5-0.2,0.7-0.2c0.2-0.1,0.4-0.2,0.6-0.2L44.6,22.2z M52.1,20v1h-7.4v-1h3.2v-1.7h-2.4v-0.9h2.4v-1.6h1v1.6h2.4v0.9
		h-2.4V20H52.1z M50.5,22.3H52v1h-1.5v2.6c0,0.5-0.1,0.9-0.3,1.1c-0.2,0.2-0.6,0.3-1.1,0.3c-0.2,0-0.4,0-0.6,0s-0.5,0-0.7,0
		l-0.2-1.1c0.3,0,0.5,0,0.8,0.1c0.2,0,0.4,0,0.6,0c0.2,0,0.4,0,0.5-0.1s0.1-0.2,0.1-0.4v-2.5h-4.6v-1h4.6v-1.1h1V22.3z M46.2,23.5
		c0.2,0.2,0.4,0.3,0.5,0.5c0.2,0.1,0.3,0.3,0.5,0.4c0.1,0.1,0.3,0.3,0.4,0.4c0.1,0.1,0.3,0.3,0.5,0.5L47.3,26
		c-0.2-0.2-0.3-0.3-0.4-0.5c-0.1-0.2-0.3-0.3-0.4-0.4c-0.1-0.1-0.3-0.3-0.5-0.4c-0.2-0.2-0.3-0.3-0.5-0.5L46.2,23.5z"/>
</g>
<text transform="matrix(1 0 0 1 0.9375 26.375)" display="none" fill="#FFFFFF" font-family="'MHeiHK-Medium'" font-size="13.5">支援服務</text>
<g>
	<path fill="#FFFFFF" d="M1.8,18.8H0.2V18h1.7v-2.6h0.8V18h1.6v0.8H2.7v3.1l1.7-0.6l0,0.8c-1,0.4-1.6,0.6-1.7,0.7v3.6
		c0,0.5-0.1,0.9-0.3,1.1c-0.2,0.2-0.5,0.3-1,0.3c-0.1,0-0.5,0-1-0.1l-0.2-0.9l1.2,0.1c0.2,0,0.3,0,0.4-0.1s0.1-0.2,0.1-0.5v-3.2
		l-1.5,0.5L0,22.7c0.5-0.1,1.1-0.3,1.8-0.6V18.8z M7.6,18.1H4.5v-0.8h3.1v-2h0.8v2h3.7v0.8H8.4v2h3c-0.7,2.1-1.6,3.7-2.8,4.8
		c1.1,0.9,2.3,1.5,3.7,1.9l-0.6,0.8c-1.5-0.5-2.7-1.2-3.7-2c-1,0.8-2.4,1.5-4,2l-0.6-0.8c1.5-0.3,2.8-0.9,4-1.8
		c-1-1.1-1.8-2.4-2.3-4H4.6v-0.8h3V18.1z M8.1,24.4c1.1-1,1.8-2.2,2.2-3.5H6C6.4,22.2,7.1,23.4,8.1,24.4z"/>
	<path fill="#FFFFFF" d="M19.3,19.2h-5.1v-0.8h5.4v-3h0.8v3h5.4v0.8h-5.1c1.2,2.4,3.1,4.5,5.5,6.3l-0.6,0.7c-2.3-1.7-4-3.7-5.2-6
		v7.4h-0.8v-7.3c-0.5,1.1-1.2,2.2-2.2,3.3c-0.9,1.1-1.9,2.1-2.9,2.9l-0.7-0.6C15,25,16,23.9,17,22.7C18,21.5,18.7,20.3,19.3,19.2z
		 M24.7,17.6L24,18.2c-0.7-0.6-1.4-1.2-2.2-1.9l0.6-0.6C23.3,16.4,24,17,24.7,17.6z"/>
	<path fill="#FFFFFF" d="M33.5,18.1h-5.6v-0.8h5.6v-1.9h0.9v1.9h5.6v0.8h-5.6v2h3.9c-0.5,1.1-1,1.9-1.6,2.6c-0.5,0.7-1.2,1.3-2,1.9
		c1.4,0.9,3.2,1.5,5.3,1.9l-0.5,0.9c-2.3-0.5-4.2-1.3-5.5-2.2c-1.3,0.9-3.2,1.6-5.7,2.3l-0.5-0.9c2.3-0.5,4.1-1.2,5.5-2
		c-1.2-1-2.2-2.2-3.1-3.8H29v-0.8h4.5V18.1z M33.9,24.2c1.4-1,2.4-2.1,2.9-3.3h-5.8C31.7,22.2,32.7,23.3,33.9,24.2z"/>
	<path fill="#FFFFFF" d="M43.6,18.8h-1.8V18h1.8v-2.6h0.8V18H46v0.8h-1.6v2.8c0.7-0.3,1.2-0.5,1.4-0.5l0.2,0.8l-1.6,0.6v3.9
		c0,0.5-0.1,0.9-0.3,1.1s-0.5,0.2-0.9,0.2s-0.8,0-1.3,0l-0.2-1c0.6,0.1,1.1,0.2,1.3,0.2c0.2,0,0.4,0,0.4-0.1
		c0.1-0.1,0.1-0.2,0.1-0.5v-3.4c-0.6,0.2-1.1,0.4-1.6,0.6l-0.3-0.8c0.4-0.1,1-0.3,1.9-0.7V18.8z M49.4,18h-2.8v-0.8h2.8v-1.8h0.8
		v1.8H53V18h-2.8v1.9h3.5v0.8h-7.9v-0.8h3.5V18z M52,22.2h1.7V23H52v3.4c0,0.4-0.1,0.7-0.3,0.9s-0.5,0.3-1,0.3s-0.9,0-1.4,0
		l-0.4-0.9c0.6,0.1,1.1,0.1,1.4,0.1c0.3,0,0.5,0,0.6-0.1c0.1-0.1,0.1-0.2,0.1-0.4V23H46v-0.8h5.2v-1.4H52V22.2z M49.4,25.3l-0.7,0.6
		c-0.5-0.6-1.2-1.3-2-2l0.6-0.6C48,23.9,48.7,24.6,49.4,25.3z"/>
</g>
</svg>
